<svg width="269" height="53" viewBox="0 0 269 53" fill="none" xmlns="http://www.w3.org/2000/svg">
<path d="M54.8892 9.14132L35.027 9.28334L32.4729 13.7806L29.8548 9.32032L9.99263 9.46234L0.184517 26.7347L10.2386 43.865L30.1008 43.723L32.6549 39.2257L35.273 43.686L55.1352 43.5439L64.9433 26.2716L54.8892 9.14132ZM37.6418 39.5146L29.4088 25.4874L24.9708 17.9253L15.003 17.9965L10.0801 26.6652L15.1264 35.2625L25.0943 35.1913L27.6484 30.694L30.2293 35.0911L27.6752 39.5884L12.6087 39.6961L4.98276 26.7029L12.4221 13.6019L27.4873 13.4942L30.7125 18.9884L35.1133 26.4875L35.1518 26.5531L35.7203 27.5214L40.1595 35.0835L50.1274 35.0123L55.0503 26.3436L50.004 17.7463L40.0361 17.8176L37.482 22.3148L34.9011 17.9177L37.4552 13.4204L52.5217 13.3127L60.1476 26.3059L52.7083 39.4069L37.6418 39.5146ZM25.2202 26.5557L22.6661 31.0529L17.4939 31.0899L14.8758 26.6296L17.4299 22.1324L22.6021 22.0954L25.2202 26.5557ZM39.9089 26.4506L42.463 21.9534L47.6352 21.9164L50.2533 26.3767L47.6992 30.8739L42.527 30.9109L39.9089 26.4506Z" fill="#7616EC"/>
<path d="M35.4881 49.72L32.9287 47.1969L30.4056 49.7563L32.9651 52.2794L35.4881 49.72Z" fill="#7616EC"/>
<path d="M35.1537 3.24056L32.5942 0.717484L30.0712 3.2769L32.6306 5.79998L35.1537 3.24056Z" fill="#7616EC"/>
<path d="M34.9011 17.9164L37.4552 13.4191L52.5217 13.3114L60.1476 26.3059L64.9433 26.2716L54.8892 9.14132L35.0283 9.28333L32.4742 13.7806L34.9011 17.9164Z" fill="url(#paint0_linear_1459_208)"/>
<path d="M25.2205 26.5556L22.6664 31.0528L17.4942 31.0898L14.8761 26.6295L10.0804 26.6638L15.1255 35.2599L25.0933 35.1886L27.6474 30.6914L25.2205 26.5556Z" fill="url(#paint1_linear_1459_208)"/>
<path d="M10.2404 43.8637L30.1026 43.7217L32.6566 39.2244L30.2285 35.0886L27.6744 39.5859L12.6079 39.6936L4.98196 26.7004L12.4213 13.5994L27.4878 13.4917L30.713 18.9859L35.1137 26.4849L35.1522 26.5506L35.7208 27.5202L40.16 35.0823L50.1279 35.011L55.0507 26.3424L50.0044 17.745L40.0366 17.8163L37.4825 22.3136L34.9016 17.9164L32.4734 13.7806L29.8553 9.32034L9.99312 9.46236L0.184997 26.7347L10.2404 43.8637ZM42.4647 21.9521L47.6369 21.9151L50.255 26.3754L47.701 30.8726L42.5288 30.9096L39.9107 26.4494L42.4647 21.9521Z" fill="url(#paint2_linear_1459_208)"/>
<path d="M10.2404 43.8637L30.1026 43.7217L32.6566 39.2244L30.2285 35.0886L27.6744 39.5859L12.6079 39.6936L4.98196 26.7004L12.4213 13.5994L27.4878 13.4917L30.713 18.9859L35.1137 26.4849L35.1522 26.5506L35.7208 27.5202L40.16 35.0823L50.1279 35.011L55.0507 26.3424L50.0044 17.745L40.0366 17.8163L37.4825 22.3136L34.9016 17.9164L32.4734 13.7806L29.8553 9.32034L9.99312 9.46236L0.184997 26.7347L10.2404 43.8637ZM42.4647 21.9521L47.6369 21.9151L50.255 26.3754L47.701 30.8726L42.5288 30.9096L39.9107 26.4494L42.4647 21.9521Z" fill="#7616EC"/>
<path d="M39.9092 26.4508L42.4645 21.9522L47.6354 21.9153L50.2535 26.3768L55.0505 26.3425L50.0042 17.7452L40.0363 17.8164L37.4823 22.3137L39.9092 26.4508Z" fill="url(#paint3_linear_1459_208)"/>
<path d="M30.2282 35.0887L27.6741 39.5859L12.6076 39.6937L4.98172 26.7004L0.186028 26.7347L10.2401 43.8638L30.1023 43.7217L32.6564 39.2245L30.2282 35.0887Z" fill="url(#paint4_linear_1459_208)"/>
<path opacity="0.2" d="M52.5943 13.1841L37.382 13.2928L34.7554 17.9186L37.4851 22.5683L40.1118 17.9425L49.9326 17.8723L54.9045 26.3421L50.0542 34.8821L40.2334 34.9524L27.5612 13.3618L12.3476 13.4706L4.83567 26.7001L12.536 39.8208L27.7496 39.712L30.3763 35.0862L27.6465 30.4366L25.0198 35.0611L15.199 35.1314L10.2272 26.6615L15.0774 18.1215L24.8982 18.0513L37.5704 39.6418L52.7827 39.533L60.2947 26.3035L52.5943 13.1841ZM52.7083 39.4068L37.6418 39.5145L29.4088 25.4874L24.9708 17.9252L15.003 17.9965L10.0801 26.6651L15.1264 35.2625L25.0943 35.1912L27.6484 30.694L30.2293 35.0911L27.6752 39.5883L12.6087 39.6961L4.98277 26.7028L12.4221 13.6019L27.4873 13.4942L30.7125 18.9884L35.1133 26.4874L35.1518 26.553L35.7203 27.5213L40.1596 35.0835L50.1274 35.0122L55.0503 26.3436L50.004 17.7462L40.0361 17.8175L37.482 22.3148L34.9011 17.9176L37.4552 13.4204L52.5217 13.3126L60.1476 26.3059L52.7083 39.4068ZM50.4004 26.3756L47.7078 21.7878L42.3886 21.8258L39.7619 26.4516L42.4544 31.0381L47.7737 31.0001L50.4004 26.3756ZM42.5283 30.9108L39.9102 26.4506L42.4643 21.9533L47.6365 21.9163L50.2546 26.3766L47.7005 30.8738L42.5283 30.9108ZM55.1352 43.5426L64.9433 26.2703L54.8892 9.13999L35.027 9.28201L32.4729 13.7793L29.8548 9.319L9.99263 9.46102L0.184517 26.7333L10.2386 43.8636L30.1008 43.7216L32.6549 39.2244L35.273 43.6846L55.1352 43.5426ZM35.3469 43.5573L32.6543 38.9696L30.0276 43.5954L10.3125 43.7363L0.33283 26.7336L10.0683 9.58852L29.7835 9.44755L32.476 14.0353L35.1027 9.40952L54.8179 9.26855L64.7975 26.2726L55.062 43.4164L35.3469 43.5573ZM14.7288 26.6306L17.4213 31.2171L22.7405 31.1791L25.3672 26.5546L22.6747 21.9668L17.3554 22.0048L14.7288 26.6306ZM22.6021 22.0941L25.2202 26.5543L22.6661 31.0516L17.4939 31.0886L14.8758 26.6283L17.4299 22.131L22.6021 22.0941Z" fill="url(#paint5_linear_1459_208)"/>
<path d="M96.1416 14.0544V18.1294C93.3754 16.886 91.1712 16.2635 89.5307 16.2635C88.5961 16.2635 87.8511 16.4203 87.2988 16.734C86.7465 17.0478 86.4704 17.4628 86.4704 17.9807C86.4704 18.3794 86.6697 18.7569 87.0668 19.1147C87.4654 19.4725 88.4344 19.9349 89.9768 20.5019C91.5192 21.0689 92.7529 21.5966 93.6777 22.0835C94.6025 22.5704 95.4014 23.2583 96.073 24.1423C96.7445 25.0279 97.0811 26.1471 97.0811 27.5C97.0811 29.4297 96.3475 30.9672 94.8802 32.1109C93.413 33.2547 91.48 33.8266 89.0814 33.8266C86.4949 33.8266 83.9868 33.155 81.5588 31.8119V27.3203C82.9509 28.2549 84.1862 28.9379 85.2597 29.3643C86.3331 29.7908 87.4736 30.0064 88.6778 30.0064C90.717 30.0064 91.7382 29.366 91.7382 28.0817C91.7382 27.6438 91.5339 27.232 91.1255 26.8432C90.717 26.4559 89.735 25.9837 88.1779 25.4266C86.6207 24.8694 85.3871 24.3531 84.477 23.8743C83.5669 23.3972 82.781 22.7142 82.1192 21.8286C81.4575 20.943 81.1274 19.8075 81.1274 18.4252C81.1274 16.6344 81.848 15.1883 83.2908 14.0887C84.7335 12.9891 86.6632 12.4384 89.0814 12.4384C91.3117 12.4433 93.6646 12.9793 96.1416 14.0544Z" fill="#7616EC"/>
<path d="M109.679 33.562V31.5474C108.375 33.0702 106.859 33.8316 105.127 33.8316C103.594 33.8316 102.351 33.3594 101.395 32.4133C100.439 31.4673 99.9619 30.1602 99.9619 28.4887V19.4743H104.395V28.1782C104.395 29.9674 105.137 30.8611 106.619 30.8611C107.455 30.8611 108.168 30.536 108.761 29.8857C109.352 29.2354 109.648 28.755 109.648 28.4478V19.4743H114.11V33.5636H109.679V33.562Z" fill="#7616EC"/>
<path d="M122.335 19.4723V23.5016H122.395C123.68 20.6161 125.176 19.1733 126.887 19.1733C127.702 19.1733 128.683 19.6014 129.826 20.4576L128.603 24.3823C127.508 23.6862 126.632 23.3382 125.975 23.3382C124.951 23.3382 124.086 23.9738 123.385 25.2433C122.685 26.5129 122.333 27.2531 122.333 27.4622V33.56H117.9V19.4707H122.335V19.4723Z" fill="#7616EC"/>
<path d="M136.224 33.8297L129.708 19.4723H134.461L137.446 27.2335L140.485 19.4723H145.184L138.697 33.8297H136.224Z" fill="#7616EC"/>
<path d="M160.811 29.1876V31.9784C159.12 33.212 157.025 33.8296 154.527 33.8296C152.05 33.8296 150.07 33.1646 148.588 31.8346C147.106 30.5046 146.364 28.7449 146.364 26.5538C146.364 24.4019 147.06 22.634 148.454 21.25C149.846 19.8661 151.622 19.1733 153.782 19.1733C155.95 19.1733 157.729 19.902 159.117 21.3595C160.504 22.817 161.154 24.7695 161.064 27.2171H150.945C151.035 28.4949 151.488 29.4801 152.303 30.168C153.118 30.8575 154.213 31.2023 155.587 31.2023C157.249 31.2023 158.991 30.5307 160.811 29.1876ZM151.035 24.8904H157.154C156.916 22.8415 155.896 21.8154 154.094 21.8154C152.274 21.8154 151.254 22.8398 151.035 24.8904Z" fill="#7616EC"/>
<path d="M177.663 19.4723L168.222 40.3213H163.499L167.636 31.2579L162.125 19.4723H166.853L169.833 26.7302L173.015 19.4723H177.663Z" fill="#7616EC"/>
<path d="M188.496 12.7113H191.481V33.5619H188.496V12.7113Z" fill="#313131"/>
<path d="M198.452 19.8305V21.5771C199.666 20.234 201.043 19.5625 202.586 19.5625C203.442 19.5625 204.237 19.7847 204.973 20.2259C205.71 20.6687 206.268 21.2765 206.652 22.0461C207.035 22.8173 207.228 24.0378 207.228 25.7093V33.5604H204.512V25.7404C204.512 24.3368 204.298 23.3352 203.87 22.7323C203.442 22.131 202.726 21.8288 201.721 21.8288C200.437 21.8288 199.349 22.4709 198.453 23.7535V33.5587H195.677V19.8272H198.452V19.8305Z" fill="#313131"/>
<path d="M211.332 19.8301V19.0099C211.332 16.8008 211.803 15.1538 212.742 14.0705C213.682 12.9856 214.809 12.4431 216.123 12.4431C216.69 12.4431 217.361 12.533 218.137 12.7111V15.3679C217.7 15.2094 217.281 15.1293 216.884 15.1293C215.819 15.1293 215.08 15.4136 214.669 15.9806C214.255 16.5475 214.049 17.5573 214.049 19.0099V19.8301H216.497V22.2777H214.049V33.56H211.334V22.2777H209.363V19.8301H211.332Z" fill="#313131"/>
<path d="M220.062 14.0545C220.51 14.0545 220.892 14.2081 221.211 14.5169C221.529 14.8257 221.688 15.2032 221.688 15.6509C221.688 16.0888 221.529 16.4662 221.211 16.7848C220.892 17.1034 220.51 17.2619 220.062 17.2619C219.644 17.2619 219.276 17.1002 218.958 16.7767C218.639 16.4531 218.48 16.0773 218.48 15.6492C218.48 15.231 218.639 14.8601 218.958 14.5365C219.276 14.2163 219.644 14.0545 220.062 14.0545ZM218.719 19.8305H221.435V33.562H218.719V19.8305Z" fill="#313131"/>
<path d="M228.076 19.8305V21.5771C229.29 20.234 230.668 19.5625 232.21 19.5625C233.067 19.5625 233.862 19.7847 234.599 20.2259C235.336 20.6687 235.895 21.2765 236.279 22.0461C236.661 22.8173 236.854 24.0378 236.854 25.7093V33.5604H234.138V25.7404C234.138 24.3368 233.924 23.3352 233.496 22.7323C233.068 22.131 232.352 21.8288 231.348 21.8288C230.063 21.8288 228.975 22.4709 228.08 23.7535V33.5587H225.304V19.8272H228.076V19.8305Z" fill="#313131"/>
<path d="M242.046 14.0545C242.494 14.0545 242.877 14.2081 243.195 14.5169C243.514 14.8257 243.672 15.2032 243.672 15.6509C243.672 16.0888 243.512 16.4662 243.195 16.7848C242.877 17.1034 242.494 17.2619 242.046 17.2619C241.628 17.2619 241.261 17.1002 240.942 16.7767C240.623 16.4531 240.465 16.0773 240.465 15.6492C240.465 15.231 240.623 14.8601 240.942 14.5365C241.261 14.2163 241.628 14.0545 242.046 14.0545ZM240.703 19.8305H243.419V33.562H240.703V19.8305Z" fill="#313131"/>
<path d="M245.419 22.01L250.523 16.9955V19.8304H254.866V22.278H250.523V28.9984C250.523 30.5686 251.175 31.3528 252.479 31.3528C253.455 31.3528 254.484 31.0293 255.569 30.3823V32.9198C254.525 33.5064 253.384 33.8005 252.151 33.8005C250.907 33.8005 249.871 33.4377 249.046 32.7106C248.788 32.4917 248.574 32.245 248.404 31.9721C248.234 31.6992 248.094 31.3398 247.979 30.897C247.865 30.4542 247.808 29.6111 247.808 28.3677V22.278H245.419V22.01Z" fill="#313131"/>
<path d="M265.952 19.8303H269L259.271 40.5616H256.239L260.9 30.6126L255.598 19.8303H258.693L262.4 27.5865L265.952 19.8303Z" fill="#313131"/>
<defs>
<linearGradient id="paint0_linear_1459_208" x1="58.1744" y1="13.4152" x2="24.8348" y2="18.8584" gradientUnits="userSpaceOnUse">
<stop offset="0.27216" stop-color="#7616EC"/>
<stop offset="0.796657" stop-color="#4B0F95"/>
</linearGradient>
<linearGradient id="paint1_linear_1459_208" x1="19.0517" y1="35.1879" x2="27.8969" y2="28.0437" gradientUnits="userSpaceOnUse">
<stop stop-color="#7616EC"/>
<stop offset="1" stop-color="#430C86"/>
</linearGradient>
<linearGradient id="paint2_linear_1459_208" x1="27.4952" y1="9.33689" x2="27.7412" y2="43.7388" gradientUnits="userSpaceOnUse">
<stop stop-color="#638EFB"/>
<stop offset="1" stop-color="#92FDDC"/>
</linearGradient>
<linearGradient id="paint3_linear_1459_208" x1="37.7939" y1="25.7965" x2="46.9074" y2="22.3215" gradientUnits="userSpaceOnUse">
<stop stop-color="#490F8F"/>
<stop offset="1" stop-color="#7616EC"/>
</linearGradient>
<linearGradient id="paint4_linear_1459_208" x1="28.4426" y1="29.129" x2="12.129" y2="36.6108" gradientUnits="userSpaceOnUse">
<stop stop-color="#490F8F"/>
<stop offset="1" stop-color="#7616EC"/>
</linearGradient>
<linearGradient id="paint5_linear_1459_208" x1="36.8417" y1="28.6446" x2="53.037" y2="36.7556" gradientUnits="userSpaceOnUse">
<stop stop-color="#5D17CF" stop-opacity="0"/>
<stop offset="0.1983" stop-color="#8955DC" stop-opacity="0.2214"/>
<stop offset="0.4475" stop-color="#BB9DEB" stop-opacity="0.4996"/>
<stop offset="0.6552" stop-color="#E0D2F6" stop-opacity="0.7315"/>
<stop offset="0.8104" stop-color="#F6F3FC" stop-opacity="0.9048"/>
<stop offset="0.8957" stop-color="white"/>
</linearGradient>
</defs>
</svg>
