<svg width="35" height="40" viewBox="0 0 35 40" fill="none" xmlns="http://www.w3.org/2000/svg">
<path d="M31.35 2.27435C30.7876 1.71167 30.1199 1.26534 29.3849 0.960881C28.6499 0.656426 27.8621 0.499814 27.0666 0.5C26.271 0.500186 25.4833 0.657165 24.7485 0.961964C24.0137 1.26676 23.3461 1.7134 22.784 2.27635L3.77 21.3164C2.63707 22.4519 2.00056 23.9903 2 25.5944V32.0004C2 32.8284 2.672 33.5004 3.5 33.5004H9.946C11.552 33.5004 13.092 32.8604 14.226 31.7264L33.226 12.7144C34.3594 11.5783 34.9959 10.0391 34.9959 8.43435C34.9959 6.82962 34.3594 5.29041 33.226 4.15435L31.35 2.27435ZM1.5 36.5004C1.10218 36.5004 0.720644 36.6584 0.43934 36.9397C0.158035 37.221 0 37.6025 0 38.0004C0 38.3982 0.158035 38.7797 0.43934 39.061C0.720644 39.3423 1.10218 39.5004 1.5 39.5004H33.5C33.8978 39.5004 34.2794 39.3423 34.5607 39.061C34.842 38.7797 35 38.3982 35 38.0004C35 37.6025 34.842 37.221 34.5607 36.9397C34.2794 36.6584 33.8978 36.5004 33.5 36.5004H1.5Z" fill="url(#paint0_linear_501_1552)"/>
<defs>
<linearGradient id="paint0_linear_501_1552" x1="32.2863" y1="38.8627" x2="27.7391" y2="16.6444" gradientUnits="userSpaceOnUse">
<stop stop-color="#490F8F"/>
<stop offset="1" stop-color="#7616EC"/>
</linearGradient>
</defs>
</svg>
