<svg width="49" height="48" viewBox="0 0 49 48" fill="none" xmlns="http://www.w3.org/2000/svg">
<path d="M8 21.0001C7.60218 21.0001 7.22064 20.842 6.93934 20.5607C6.65804 20.2794 6.5 19.8979 6.5 19.5001V7.50305C6.5 7.10523 6.65804 6.7237 6.93934 6.44239C7.22064 6.16109 7.60218 6.00305 8 6.00305H20C20.3978 6.00305 20.7794 6.16109 21.0607 6.44239C21.342 6.7237 21.5 7.10523 21.5 7.50305V19.5001C21.5 19.8979 21.342 20.2794 21.0607 20.5607C20.7794 20.842 20.3978 21.0001 20 21.0001H8ZM29 21.0001C28.6022 21.0001 28.2206 20.842 27.9393 20.5607C27.658 20.2794 27.5 19.8979 27.5 19.5001V7.50305C27.5 7.10523 27.658 6.7237 27.9393 6.44239C28.2206 6.16109 28.6022 6.00305 29 6.00305H40.997C41.3948 6.00305 41.7764 6.16109 42.0577 6.44239C42.339 6.7237 42.497 7.10523 42.497 7.50305V19.5001C42.497 19.8979 42.339 20.2794 42.0577 20.5607C41.7764 20.842 41.3948 21.0001 40.997 21.0001H29ZM8 42.0001C7.60218 42.0001 7.22064 41.842 6.93934 41.5607C6.65804 41.2794 6.5 40.8979 6.5 40.5001V28.5001C6.5 28.1022 6.65804 27.7207 6.93934 27.4394C7.22064 27.1581 7.60218 27.0001 8 27.0001H20C20.3978 27.0001 20.7794 27.1581 21.0607 27.4394C21.342 27.7207 21.5 28.1022 21.5 28.5001V40.5001C21.5 40.8979 21.342 41.2794 21.0607 41.5607C20.7794 41.842 20.3978 42.0001 20 42.0001H8ZM29 42.0001C28.6022 42.0001 28.2206 41.842 27.9393 41.5607C27.658 41.2794 27.5 40.8979 27.5 40.5001V28.5001C27.5 28.1022 27.658 27.7207 27.9393 27.4394C28.2206 27.1581 28.6022 27.0001 29 27.0001H40.997C41.3948 27.0001 41.7764 27.1581 42.0577 27.4394C42.339 27.7207 42.497 28.1022 42.497 28.5001V40.5001C42.497 40.8979 42.339 41.2794 42.0577 41.5607C41.7764 41.842 41.3948 42.0001 40.997 42.0001H29Z" fill="url(#paint0_linear_501_1556)"/>
<defs>
<linearGradient id="paint0_linear_501_1556" x1="39.706" y1="41.4115" x2="35.9098" y2="20.7425" gradientUnits="userSpaceOnUse">
<stop stop-color="#490F8F"/>
<stop offset="1" stop-color="#7616EC"/>
</linearGradient>
</defs>
</svg>
