<svg width="49" height="48" viewBox="0 0 49 48" fill="none" xmlns="http://www.w3.org/2000/svg">
<path d="M8.5 12C9.56087 12 10.5783 11.5786 11.3284 10.8284C12.0786 10.0783 12.5 9.06087 12.5 8C12.5 6.93913 12.0786 5.92172 11.3284 5.17157C10.5783 4.42143 9.56087 4 8.5 4C7.43913 4 6.42172 4.42143 5.67157 5.17157C4.92143 5.92172 4.5 6.93913 4.5 8C4.5 9.06087 4.92143 10.0783 5.67157 10.8284C6.42172 11.5786 7.43913 12 8.5 12ZM10.5 42C12.0913 42 13.6174 41.3679 14.7426 40.2426C15.8679 39.1174 16.5 37.5913 16.5 36C16.5 34.4087 15.8679 32.8826 14.7426 31.7574C13.6174 30.6321 12.0913 30 10.5 30C8.9087 30 7.38258 30.6321 6.25736 31.7574C5.13214 32.8826 4.5 34.4087 4.5 36C4.5 37.5913 5.13214 39.1174 6.25736 40.2426C7.38258 41.3679 8.9087 42 10.5 42ZM38.5 44C40.0913 44 41.6174 43.3679 42.7426 42.2426C43.8679 41.1174 44.5 39.5913 44.5 38C44.5 36.4087 43.8679 34.8826 42.7426 33.7574C41.6174 32.6321 40.0913 32 38.5 32C36.9087 32 35.3826 32.6321 34.2574 33.7574C33.1321 34.8826 32.5 36.4087 32.5 38C32.5 39.5913 33.1321 41.1174 34.2574 42.2426C35.3826 43.3679 36.9087 44 38.5 44ZM22.5 28C24.6217 28 26.6566 27.1571 28.1569 25.6569C29.6571 24.1566 30.5 22.1217 30.5 20C30.5 17.8783 29.6571 15.8434 28.1569 14.3431C26.6566 12.8429 24.6217 12 22.5 12C20.3783 12 18.3434 12.8429 16.8431 14.3431C15.3429 15.8434 14.5 17.8783 14.5 20C14.5 22.1217 15.3429 24.1566 16.8431 25.6569C18.3434 27.1571 20.3783 28 22.5 28ZM34.5 12C35.5609 12 36.5783 11.5786 37.3284 10.8284C38.0786 10.0783 38.5 9.06087 38.5 8C38.5 6.93913 38.0786 5.92172 37.3284 5.17157C36.5783 4.42143 35.5609 4 34.5 4C33.4391 4 32.4217 4.42143 31.6716 5.17157C30.9214 5.92172 30.5 6.93913 30.5 8C30.5 9.06087 30.9214 10.0783 31.6716 10.8284C32.4217 11.5786 33.4391 12 34.5 12Z" fill="url(#paint0_linear_501_1561)" stroke="url(#paint1_linear_501_1561)" stroke-width="2" stroke-linecap="round" stroke-linejoin="round"/>
<path d="M11 10L15.1739 14.2667M30.8261 11.0667L28.7391 13.2M35 34L28.7391 26M14.1304 31.3333L18.3043 27.0667" stroke="url(#paint2_linear_501_1561)" stroke-width="2" stroke-linecap="round" stroke-linejoin="round"/>
<defs>
<linearGradient id="paint0_linear_501_1561" x1="41.3986" y1="43.346" x2="37.1802" y2="20.3785" gradientUnits="userSpaceOnUse">
<stop stop-color="#490F8F"/>
<stop offset="1" stop-color="#7616EC"/>
</linearGradient>
<linearGradient id="paint1_linear_501_1561" x1="41.3986" y1="43.346" x2="37.1802" y2="20.3785" gradientUnits="userSpaceOnUse">
<stop stop-color="#490F8F"/>
<stop offset="1" stop-color="#7616EC"/>
</linearGradient>
<linearGradient id="paint2_linear_501_1561" x1="33.1392" y1="33.6076" x2="30.6081" y2="19.8271" gradientUnits="userSpaceOnUse">
<stop stop-color="#490F8F"/>
<stop offset="1" stop-color="#7616EC"/>
</linearGradient>
</defs>
</svg>
