<svg width="49" height="48" viewBox="0 0 49 48" fill="none" xmlns="http://www.w3.org/2000/svg">
<path d="M43.9 14.6C43.1 13.8 41.9 13.8 41.1 14.6L28.5 27.2L19.9 18.6C19.5 18.2 19.1 18 18.5 18C17.9 18 17.5 18.2 17.1 18.6L5.1 30.6C4.7 31 4.5 31.4 4.5 32C4.5 33.2 5.3 34 6.5 34C7.1 34 7.5 33.8 7.9 33.4L18.5 22.8L27.1 31.4C27.3 31.6 27.5 31.8 27.7 31.8C27.9 32 28.3 32 28.5 32C28.9 32 29.5 31.8 29.7 31.4H29.9L43.9 17.4C44.7 16.6 44.7 15.4 43.9 14.6Z" fill="url(#paint0_linear_501_1569)"/>
<defs>
<linearGradient id="paint0_linear_501_1569" x1="41.3986" y1="33.673" x2="40.3176" y2="21.9011" gradientUnits="userSpaceOnUse">
<stop stop-color="#490F8F"/>
<stop offset="1" stop-color="#7616EC"/>
</linearGradient>
</defs>
</svg>
