<svg width="49" height="48" viewBox="0 0 49 48" fill="none" xmlns="http://www.w3.org/2000/svg">
<g clip-path="url(#clip0_501_1574)">
<path d="M41.434 17.388L41.926 16.256C42.791 14.2534 44.3752 12.6478 46.366 11.756L47.884 11.078C48.0682 10.9932 48.2242 10.8575 48.3335 10.6868C48.4429 10.5161 48.501 10.3177 48.501 10.115C48.501 9.91225 48.4429 9.71379 48.3335 9.54311C48.2242 9.37242 48.0682 9.23668 47.884 9.15197L46.45 8.51396C44.4092 7.59672 42.7979 5.93173 41.948 3.86196L41.442 2.63997C41.3677 2.45067 41.2381 2.28816 41.07 2.17361C40.902 2.05907 40.7034 1.9978 40.5 1.9978C40.2966 1.9978 40.098 2.05907 39.93 2.17361C39.7619 2.28816 39.6323 2.45067 39.558 2.63997L39.052 3.85996C38.203 5.93012 36.5924 7.59583 34.552 8.51396L33.116 9.15396C32.9324 9.23892 32.7769 9.37465 32.668 9.54511C32.559 9.71558 32.5011 9.91366 32.5011 10.116C32.5011 10.3183 32.559 10.5164 32.668 10.6868C32.7769 10.8573 32.9324 10.993 33.116 11.078L34.636 11.754C36.6264 12.6467 38.2099 14.253 39.074 16.256L39.566 17.388C39.926 18.216 41.072 18.216 41.434 17.388ZM40.5 22C41.84 22 43.126 21.78 44.33 21.376C44.4433 22.236 44.5 23.1106 44.5 24C44.5 35.046 35.546 44 24.5 44C13.454 44 4.5 35.046 4.5 24C4.5 12.954 13.454 3.99996 24.5 3.99996C26.312 3.99996 28.066 4.23996 29.734 4.69196C28.8315 6.52178 28.4105 8.55148 28.5107 10.5893C28.6109 12.6271 29.229 14.6057 30.3066 16.3381C31.3843 18.0706 32.8858 19.4997 34.6694 20.4904C36.453 21.481 38.4597 22.0006 40.5 22ZM26.5 22V12L16.5 26H22.5V36L32.5 22H26.5Z" fill="url(#paint0_linear_501_1574)"/>
</g>
<defs>
<linearGradient id="paint0_linear_501_1574" x1="45.0894" y1="43.3132" x2="40.8488" y2="19.126" gradientUnits="userSpaceOnUse">
<stop stop-color="#490F8F"/>
<stop offset="1" stop-color="#7616EC"/>
</linearGradient>
<clipPath id="clip0_501_1574">
<rect width="48" height="48" fill="white" transform="translate(0.5)"/>
</clipPath>
</defs>
</svg>
