<svg width="49" height="48" viewBox="0 0 49 48" fill="none" xmlns="http://www.w3.org/2000/svg">
<path d="M44.5 7.88L24.5 0.880005L4.5 7.88V24C4.5 32.254 9.568 38.024 14.292 41.606C17.1442 43.7469 20.2724 45.4927 23.592 46.796C23.8187 46.8813 24.0467 46.9627 24.276 47.04L24.5 47.12L24.728 47.04C25.1653 46.8881 25.5988 46.7254 26.028 46.552C29.1195 45.2783 32.0363 43.6163 34.708 41.606C39.434 38.024 44.5 32.254 44.5 24V7.88ZM22.502 30.83L14.02 22.344L16.848 19.514L22.504 25.172L33.818 13.858L36.648 16.686L22.502 30.83Z" fill="url(#paint0_linear_501_1579)"/>
<defs>
<linearGradient id="paint0_linear_501_1579" x1="41.3986" y1="46.364" x2="35.8226" y2="20.1018" gradientUnits="userSpaceOnUse">
<stop stop-color="#490F8F"/>
<stop offset="1" stop-color="#7616EC"/>
</linearGradient>
</defs>
</svg>
