<svg width="25" height="24" viewBox="0 0 25 24" fill="none" xmlns="http://www.w3.org/2000/svg">
<path d="M15.3334 22.75H9.33337C3.90337 22.75 1.58337 20.43 1.58337 15V9C1.58337 3.57 3.90337 1.25 9.33337 1.25H15.3334C20.7634 1.25 23.0834 3.57 23.0834 9V15C23.0834 20.43 20.7634 22.75 15.3334 22.75ZM9.33337 2.75C4.72337 2.75 3.08337 4.39 3.08337 9V15C3.08337 19.61 4.72337 21.25 9.33337 21.25H15.3334C19.9434 21.25 21.5834 19.61 21.5834 15V9C21.5834 4.39 19.9434 2.75 15.3334 2.75H9.33337Z" fill="url(#paint0_linear_504_8717)"/>
<path d="M7.66335 15.2381C7.50335 15.2381 7.34335 15.1881 7.20335 15.0781C7.12521 15.0183 7.0596 14.9438 7.01028 14.8586C6.96095 14.7735 6.92887 14.6796 6.91587 14.5821C6.90287 14.4846 6.9092 14.3854 6.93451 14.2904C6.95981 14.1953 7.00359 14.1062 7.06335 14.0281L9.44335 10.9381C9.73335 10.5681 10.1433 10.3281 10.6133 10.2681C11.0733 10.2081 11.5433 10.3381 11.9133 10.6281L13.7433 12.0681C13.8133 12.1281 13.8833 12.1281 13.9333 12.1181C13.9733 12.1181 14.0433 12.0981 14.1033 12.0181L16.4133 9.03806C16.4731 8.95967 16.5479 8.894 16.6333 8.84491C16.7188 8.79582 16.8132 8.7643 16.911 8.75219C17.0088 8.74008 17.108 8.74763 17.2029 8.7744C17.2978 8.80116 17.3863 8.8466 17.4633 8.90806C17.7933 9.15806 17.8533 9.62806 17.5933 9.95806L15.2833 12.9381C14.9933 13.3081 14.5833 13.5481 14.1133 13.5981C13.6433 13.6581 13.1833 13.5281 12.8133 13.2381L10.9833 11.7981C10.9577 11.7756 10.9272 11.7593 10.8942 11.7507C10.8613 11.742 10.8267 11.7411 10.7933 11.7481C10.7533 11.7481 10.6833 11.7681 10.6233 11.8481L8.24335 14.9381C8.11335 15.1381 7.89335 15.2381 7.66335 15.2381Z" fill="url(#paint1_linear_504_8717)"/>
<defs>
<linearGradient id="paint0_linear_504_8717" x1="21.4164" y1="22.3985" x2="19.149" y2="10.0534" gradientUnits="userSpaceOnUse">
<stop stop-color="#490F8F"/>
<stop offset="1" stop-color="#7616EC"/>
</linearGradient>
<linearGradient id="paint1_linear_504_8717" x1="16.9144" y1="15.1319" x2="16.4959" y2="11.3249" gradientUnits="userSpaceOnUse">
<stop stop-color="#490F8F"/>
<stop offset="1" stop-color="#7616EC"/>
</linearGradient>
</defs>
</svg>
