<svg width="28" height="28" viewBox="0 0 28 28" fill="none" xmlns="http://www.w3.org/2000/svg">
<path d="M8.17484 14C8.17484 13.7679 8.26702 13.5453 8.43112 13.3813C8.59521 13.2172 8.81777 13.125 9.04984 13.125H13.125V9.0498C13.125 8.81774 13.2172 8.59518 13.3813 8.43109C13.5454 8.26699 13.7679 8.1748 14 8.1748C14.2321 8.1748 14.4546 8.26699 14.6187 8.43109C14.7828 8.59518 14.875 8.81774 14.875 9.0498V13.125H18.9502C19.1822 13.125 19.4048 13.2172 19.5689 13.3813C19.733 13.5453 19.8252 13.7679 19.8252 14C19.8252 14.232 19.733 14.4546 19.5689 14.6187C19.4048 14.7828 19.1822 14.875 18.9502 14.875H14.875V18.9501C14.875 19.1822 14.7828 19.4048 14.6187 19.5689C14.4546 19.733 14.2321 19.8251 14 19.8251C13.7679 19.8251 13.5454 19.733 13.3813 19.5689C13.2172 19.4048 13.125 19.1822 13.125 18.9501V14.875H9.04984C8.81777 14.875 8.59521 14.7828 8.43112 14.6187C8.26702 14.4546 8.17484 14.232 8.17484 14Z" fill="#969696"/>
<path fill-rule="evenodd" clip-rule="evenodd" d="M8.5365 4.39714C12.1677 3.99457 15.8323 3.99457 19.4635 4.39714C21.595 4.63514 23.3158 6.31397 23.5655 8.45714C23.9972 12.1403 23.9972 15.8608 23.5655 19.544C23.3147 21.6871 21.5938 23.3648 19.4635 23.604C15.8323 24.0065 12.1677 24.0065 8.5365 23.604C6.405 23.3648 4.68416 21.6871 4.4345 19.544C4.00476 15.8609 4.00476 12.1403 4.4345 8.45714C4.68416 6.31397 6.40616 4.63514 8.5365 4.39714ZM19.2698 6.13547C15.7673 5.74724 12.2327 5.74724 8.73016 6.13547C8.08178 6.20741 7.47658 6.49583 7.01234 6.95414C6.5481 7.41246 6.25192 8.0139 6.17166 8.66131C5.75672 12.2091 5.75672 15.7932 6.17166 19.341C6.25217 19.9882 6.54845 20.5893 7.01267 21.0474C7.47689 21.5055 8.08196 21.7938 8.73016 21.8656C12.2033 22.253 15.7967 22.253 19.2698 21.8656C19.9178 21.7935 20.5226 21.5052 20.9866 21.0471C21.4506 20.589 21.7467 19.988 21.8272 19.341C22.2421 15.7932 22.2421 12.2091 21.8272 8.66131C21.7465 8.0145 21.4503 7.41373 20.9863 6.9559C20.5223 6.49807 19.9177 6.20988 19.2698 6.13781" fill="#969696"/>
</svg>
