<svg width="25" height="24" viewBox="0 0 25 24" fill="none" xmlns="http://www.w3.org/2000/svg">
<path d="M18.3333 7.912H18.2033C16.3133 7.852 14.9033 6.392 14.9033 4.592C14.9033 2.752 16.4033 1.262 18.2333 1.262C20.0633 1.262 21.5633 2.762 21.5633 4.592C21.5645 5.45666 21.2291 6.28784 20.628 6.90943C20.027 7.53102 19.2075 7.89419 18.3433 7.922C18.3433 7.912 18.3433 7.912 18.3333 7.912ZM18.2333 2.752C17.2233 2.752 16.4033 3.572 16.4033 4.582C16.4033 5.572 17.1733 6.372 18.1633 6.412C18.1733 6.402 18.2533 6.402 18.3433 6.412C18.8168 6.38078 19.2597 6.16705 19.5788 5.81582C19.8979 5.46458 20.0682 5.00324 20.0539 4.52893C20.0397 4.05462 19.842 3.60435 19.5024 3.27291C19.1628 2.94147 18.7078 2.75473 18.2333 2.752ZM18.3423 15.28C17.9523 15.28 17.5623 15.25 17.1723 15.18C17.0751 15.1631 16.9821 15.1272 16.8988 15.0742C16.8154 15.0213 16.7433 14.9525 16.6867 14.8717C16.63 14.7908 16.5898 14.6996 16.5685 14.6032C16.5472 14.5068 16.5451 14.4072 16.5623 14.31C16.5792 14.2127 16.6152 14.1198 16.6681 14.0364C16.721 13.9531 16.7898 13.881 16.8707 13.8244C16.9515 13.7677 17.0427 13.7275 17.1391 13.7062C17.2355 13.6849 17.3351 13.6827 17.4323 13.7C18.6623 13.91 19.9623 13.68 20.8323 13.1C21.3023 12.79 21.5523 12.4 21.5523 12.01C21.5523 11.62 21.2923 11.24 20.8323 10.93C19.9623 10.35 18.6423 10.12 17.4023 10.34C16.9923 10.42 16.6023 10.14 16.5323 9.73C16.4623 9.32 16.7323 8.93 17.1423 8.86C18.7723 8.57 20.4623 8.88 21.6623 9.68C22.5423 10.27 23.0523 11.11 23.0523 12.01C23.0523 12.9 22.5523 13.75 21.6623 14.35C20.7523 14.95 19.5723 15.28 18.3423 15.28ZM6.30331 7.91H6.28331C5.42057 7.88299 4.60217 7.52145 4.00123 6.90184C3.40028 6.28223 3.06393 5.45316 3.06331 4.59C3.06331 2.75 4.56331 1.25 6.39331 1.25C8.22331 1.25 9.72331 2.75 9.72331 4.58C9.72331 6.39 8.31331 7.85 6.51331 7.91L6.30331 7.16L6.37331 7.91H6.30331ZM6.40331 6.41C6.46331 6.41 6.51331 6.41 6.57331 6.42C7.46331 6.38 8.24331 5.58 8.24331 4.59C8.24278 4.23244 8.13751 3.88286 7.9405 3.58447C7.74349 3.28607 7.46339 3.05192 7.13478 2.91095C6.80618 2.76999 6.44348 2.72837 6.09149 2.79126C5.7395 2.85414 5.41364 3.01876 5.15417 3.26478C4.8947 3.51081 4.71299 3.82746 4.63149 4.17561C4.54999 4.52376 4.57226 4.88816 4.69556 5.22379C4.81887 5.55942 5.03779 5.85158 5.3253 6.06417C5.6128 6.27676 5.95628 6.40046 6.31331 6.42C6.32331 6.41 6.36331 6.41 6.40331 6.41ZM6.29331 15.28C5.06331 15.28 3.88331 14.95 2.97331 14.35C2.09331 13.76 1.58331 12.91 1.58331 12.01C1.58331 11.12 2.09331 10.27 2.97331 9.68C4.17331 8.88 5.86331 8.57 7.49331 8.86C7.90331 8.93 8.17331 9.32 8.10331 9.73C8.03331 10.14 7.64331 10.42 7.23331 10.34C5.99331 10.12 4.68331 10.35 3.80331 10.93C3.33331 11.24 3.08331 11.62 3.08331 12.01C3.08331 12.4 3.34331 12.79 3.80331 13.1C4.67331 13.68 5.97331 13.91 7.20331 13.7C7.61331 13.63 8.00331 13.91 8.07331 14.31C8.14331 14.72 7.87331 15.11 7.46331 15.18C7.07331 15.25 6.68331 15.28 6.29331 15.28ZM12.3333 15.38H12.2033C10.3133 15.32 8.90331 13.86 8.90331 12.06C8.90331 10.22 10.4033 8.73 12.2333 8.73C14.0633 8.73 15.5633 10.23 15.5633 12.06C15.5645 12.9247 15.2291 13.7558 14.628 14.3774C14.027 14.999 13.2075 15.3622 12.3433 15.39C12.3433 15.38 12.3433 15.38 12.3333 15.38ZM12.2333 10.22C11.2233 10.22 10.4033 11.04 10.4033 12.05C10.4033 13.04 11.1733 13.84 12.1633 13.88C12.1733 13.87 12.2533 13.87 12.3433 13.88C13.3133 13.83 14.0633 13.03 14.0733 12.05C14.0733 11.05 13.2533 10.22 12.2333 10.22ZM12.3343 22.759C11.1343 22.759 9.93431 22.449 9.00431 21.819C8.12431 21.229 7.61431 20.389 7.61431 19.489C7.61431 18.599 8.11431 17.739 9.00431 17.149C10.8743 15.909 13.8043 15.909 15.6643 17.149C16.5443 17.739 17.0543 18.579 17.0543 19.479C17.0543 20.369 16.5543 21.229 15.6643 21.819C14.7343 22.439 13.5343 22.759 12.3343 22.759ZM9.83431 18.409C9.36431 18.719 9.11431 19.109 9.11431 19.499C9.11431 19.889 9.37431 20.269 9.83431 20.579C11.1843 21.489 13.4743 21.489 14.8243 20.579C15.2943 20.269 15.5443 19.879 15.5443 19.489C15.5443 19.099 15.2843 18.719 14.8243 18.409C13.4843 17.499 11.1943 17.509 9.83431 18.409Z" fill="url(#paint0_linear_504_8669)"/>
<defs>
<linearGradient id="paint0_linear_504_8669" x1="21.3877" y1="22.4073" x2="19.1154" y2="10.0586" gradientUnits="userSpaceOnUse">
<stop stop-color="#490F8F"/>
<stop offset="1" stop-color="#7616EC"/>
</linearGradient>
</defs>
</svg>
