<svg width="34" height="30" viewBox="0 0 34 30" fill="none" xmlns="http://www.w3.org/2000/svg">
<g clip-path="url(#clip0_199_557)">
<g clip-path="url(#clip1_199_557)">
<path d="M13.877 2.50195L11.668 3.32812C11.4922 3.39258 11.375 3.5625 11.375 3.75C11.375 3.9375 11.4922 4.10742 11.668 4.17188L13.877 4.99805L14.7031 7.20703C14.7676 7.38281 14.9375 7.5 15.125 7.5C15.3125 7.5 15.4824 7.38281 15.5469 7.20703L16.373 4.99805L18.582 4.17188C18.7578 4.10742 18.875 3.9375 18.875 3.75C18.875 3.5625 18.7578 3.39258 18.582 3.32812L16.373 2.50195L15.5469 0.292969C15.4824 0.117188 15.3125 0 15.125 0C14.9375 0 14.7676 0.117188 14.7031 0.292969L13.877 2.50195ZM2.82617 23.168C1.73047 24.2637 1.73047 26.0449 2.82617 27.1465L4.85352 29.1738C5.94922 30.2695 7.73047 30.2695 8.83203 29.1738L31.1738 6.82617C32.2695 5.73047 32.2695 3.94922 31.1738 2.84766L29.1465 0.826172C28.0508 -0.269531 26.2695 -0.269531 25.168 0.826172L2.82617 23.168ZM28.5195 4.83984L22.3672 10.9922L21.002 9.62695L27.1543 3.47461L28.5195 4.83984ZM0.564453 6.86719C0.300781 6.9668 0.125 7.21875 0.125 7.5C0.125 7.78125 0.300781 8.0332 0.564453 8.13281L3.875 9.375L5.11719 12.6855C5.2168 12.9492 5.46875 13.125 5.75 13.125C6.03125 13.125 6.2832 12.9492 6.38281 12.6855L7.625 9.375L10.9355 8.13281C11.1992 8.0332 11.375 7.78125 11.375 7.5C11.375 7.21875 11.1992 6.9668 10.9355 6.86719L7.625 5.625L6.38281 2.31445C6.2832 2.05078 6.03125 1.875 5.75 1.875C5.46875 1.875 5.2168 2.05078 5.11719 2.31445L3.875 5.625L0.564453 6.86719ZM21.1895 21.8672C20.9258 21.9668 20.75 22.2188 20.75 22.5C20.75 22.7812 20.9258 23.0332 21.1895 23.1328L24.5 24.375L25.7422 27.6855C25.8418 27.9492 26.0938 28.125 26.375 28.125C26.6562 28.125 26.9082 27.9492 27.0078 27.6855L28.25 24.375L31.5605 23.1328C31.8242 23.0332 32 22.7812 32 22.5C32 22.2188 31.8242 21.9668 31.5605 21.8672L28.25 20.625L27.0078 17.3145C26.9082 17.0508 26.6562 16.875 26.375 16.875C26.0938 16.875 25.8418 17.0508 25.7422 17.3145L24.5 20.625L21.1895 21.8672Z" fill="url(#paint0_linear_199_557)"/>
</g>
</g>
<defs>
<linearGradient id="paint0_linear_199_557" x1="29.5286" y1="29.5052" x2="26.5406" y2="12.2175" gradientUnits="userSpaceOnUse">
<stop stop-color="#490F8F"/>
<stop offset="1" stop-color="#7616EC"/>
</linearGradient>
<clipPath id="clip0_199_557">
<rect width="33.75" height="30" fill="white" transform="translate(0.125)"/>
</clipPath>
<clipPath id="clip1_199_557">
<path d="M0.125 0H33.875V30H0.125V0Z" fill="white"/>
</clipPath>
</defs>
</svg>
