<svg width="30" height="30" viewBox="0 0 30 30" fill="none" xmlns="http://www.w3.org/2000/svg">
<g clip-path="url(#clip0_199_563)">
<g clip-path="url(#clip1_199_563)">
<path d="M0 24.375C0 25.4121 0.837891 26.25 1.875 26.25H5.08008C5.80078 27.9082 7.45312 29.0625 9.375 29.0625C11.2969 29.0625 12.9492 27.9082 13.6699 26.25H28.125C29.1621 26.25 30 25.4121 30 24.375C30 23.3379 29.1621 22.5 28.125 22.5H13.6699C12.9492 20.8418 11.2969 19.6875 9.375 19.6875C7.45312 19.6875 5.80078 20.8418 5.08008 22.5H1.875C0.837891 22.5 0 23.3379 0 24.375ZM7.5 24.375C7.5 23.8777 7.69754 23.4008 8.04918 23.0492C8.40081 22.6975 8.87772 22.5 9.375 22.5C9.87228 22.5 10.3492 22.6975 10.7008 23.0492C11.0525 23.4008 11.25 23.8777 11.25 24.375C11.25 24.8723 11.0525 25.3492 10.7008 25.7008C10.3492 26.0525 9.87228 26.25 9.375 26.25C8.87772 26.25 8.40081 26.0525 8.04918 25.7008C7.69754 25.3492 7.5 24.8723 7.5 24.375ZM18.75 15C18.75 14.5027 18.9475 14.0258 19.2992 13.6742C19.6508 13.3225 20.1277 13.125 20.625 13.125C21.1223 13.125 21.5992 13.3225 21.9508 13.6742C22.3025 14.0258 22.5 14.5027 22.5 15C22.5 15.4973 22.3025 15.9742 21.9508 16.3258C21.5992 16.6775 21.1223 16.875 20.625 16.875C20.1277 16.875 19.6508 16.6775 19.2992 16.3258C18.9475 15.9742 18.75 15.4973 18.75 15ZM20.625 10.3125C18.7031 10.3125 17.0508 11.4668 16.3301 13.125H1.875C0.837891 13.125 0 13.9629 0 15C0 16.0371 0.837891 16.875 1.875 16.875H16.3301C17.0508 18.5332 18.7031 19.6875 20.625 19.6875C22.5469 19.6875 24.1992 18.5332 24.9199 16.875H28.125C29.1621 16.875 30 16.0371 30 15C30 13.9629 29.1621 13.125 28.125 13.125H24.9199C24.1992 11.4668 22.5469 10.3125 20.625 10.3125ZM11.25 7.5C10.7527 7.5 10.2758 7.30246 9.92418 6.95083C9.57254 6.59919 9.375 6.12228 9.375 5.625C9.375 5.12772 9.57254 4.65081 9.92418 4.29917C10.2758 3.94754 10.7527 3.75 11.25 3.75C11.7473 3.75 12.2242 3.94754 12.5758 4.29917C12.9275 4.65081 13.125 5.12772 13.125 5.625C13.125 6.12228 12.9275 6.59919 12.5758 6.95083C12.2242 7.30246 11.7473 7.5 11.25 7.5ZM15.5449 3.75C14.8242 2.0918 13.1719 0.9375 11.25 0.9375C9.32812 0.9375 7.67578 2.0918 6.95508 3.75H1.875C0.837891 3.75 0 4.58789 0 5.625C0 6.66211 0.837891 7.5 1.875 7.5H6.95508C7.67578 9.1582 9.32812 10.3125 11.25 10.3125C13.1719 10.3125 14.8242 9.1582 15.5449 7.5H28.125C29.1621 7.5 30 6.66211 30 5.625C30 4.58789 29.1621 3.75 28.125 3.75H15.5449Z" fill="url(#paint0_linear_199_563)"/>
</g>
</g>
<defs>
<linearGradient id="paint0_linear_199_563" x1="27.674" y1="28.6026" x2="24.8823" y2="12.3896" gradientUnits="userSpaceOnUse">
<stop stop-color="#490F8F"/>
<stop offset="1" stop-color="#7616EC"/>
</linearGradient>
<clipPath id="clip0_199_563">
<rect width="30" height="30" fill="white"/>
</clipPath>
<clipPath id="clip1_199_563">
<path d="M0 0H30V30H0V0Z" fill="white"/>
</clipPath>
</defs>
</svg>
