<svg width="30" height="25" viewBox="0 0 30 25" fill="none" xmlns="http://www.w3.org/2000/svg">
<g clip-path="url(#clip0_190_1172)">
<path d="M15.0007 2C14.621 2 14.246 2.06562 13.8898 2.19219L0.741347 6.94062C0.296034 7.10469 0.000721513 7.52656 0.000721513 8C0.000721513 8.47344 0.296034 8.89531 0.741347 9.05938L3.45541 10.0391C2.68666 11.2484 2.25072 12.6781 2.25072 14.1828V15.5C2.25072 16.8313 1.74447 18.2047 1.20541 19.2875C0.900722 19.8969 0.553847 20.4969 0.150722 21.05C0.000721514 21.2516 -0.041466 21.5141 0.042909 21.7531C0.127284 21.9922 0.324159 22.1703 0.567909 22.2313L3.56791 22.9813C3.76478 23.0328 3.97572 22.9953 4.14916 22.8875C4.3226 22.7797 4.44447 22.6016 4.48197 22.4C4.8851 20.3938 4.68353 18.5938 4.38353 17.3047C4.23353 16.6391 4.03197 15.9594 3.75072 15.3359V14.1828C3.75072 12.7672 4.22885 11.4312 5.05853 10.3625C5.66322 9.63594 6.44603 9.05 7.36478 8.68906L14.7242 5.79688C15.1085 5.64687 15.5445 5.83437 15.6945 6.21875C15.8445 6.60313 15.657 7.03906 15.2726 7.18906L7.91322 10.0812C7.33197 10.3109 6.82103 10.6625 6.40385 11.0938L13.8851 13.7938C14.2413 13.9203 14.6163 13.9859 14.996 13.9859C15.3757 13.9859 15.7507 13.9203 16.107 13.7938L29.2601 9.05938C29.7054 8.9 30.0007 8.47344 30.0007 8C30.0007 7.52656 29.7054 7.10469 29.2601 6.94062L16.1117 2.19219C15.7554 2.06562 15.3804 2 15.0007 2ZM6.00072 19.625C6.00072 21.2797 10.032 23 15.0007 23C19.9695 23 24.0007 21.2797 24.0007 19.625L23.2835 12.8094L16.6179 15.2188C16.0976 15.4062 15.5492 15.5 15.0007 15.5C14.4523 15.5 13.8992 15.4062 13.3835 15.2188L6.71791 12.8094L6.00072 19.625Z" fill="url(#paint0_linear_190_1172)"/>
</g>
<defs>
<linearGradient id="paint0_linear_190_1172" x1="27.6746" y1="22.6607" x2="26.0976" y2="10.3963" gradientUnits="userSpaceOnUse">
<stop stop-color="#490F8F"/>
<stop offset="1" stop-color="#7616EC"/>
</linearGradient>
<clipPath id="clip0_190_1172">
<path d="M0 0.5H30V24.5H0V0.5Z" fill="white"/>
</clipPath>
</defs>
</svg>
