<svg width="66" height="53" viewBox="0 0 66 53" fill="none" xmlns="http://www.w3.org/2000/svg">
<path d="M54.8892 9.44137L35.027 9.58339L32.4729 14.0806L29.8548 9.62037L9.99259 9.76239L0.184479 27.0347L10.2386 44.165L30.1008 44.023L32.6549 39.5258L35.273 43.986L55.1352 43.844L64.9433 26.5717L54.8892 9.44137ZM37.6417 39.8146L29.4088 25.7875L24.9708 18.2253L15.0029 18.2966L10.0801 26.9652L15.1264 35.5626L25.0943 35.4913L27.6483 30.9941L30.2292 35.3912L27.6752 39.8884L12.6086 39.9962L4.98272 27.0029L12.422 13.902L27.4873 13.7943L30.7125 19.2885L35.1132 26.7875L35.1517 26.8531L35.7203 27.8215L40.1595 35.3836L50.1274 35.3123L55.0502 26.6437L50.0039 18.0463L40.036 18.1176L37.482 22.6149L34.9011 18.2177L37.4551 13.7205L52.5217 13.6127L60.1476 26.606L52.7082 39.7069L37.6417 39.8146ZM25.2201 26.8557L22.6661 31.353L17.4939 31.3899L14.8758 26.9297L17.4298 22.4324L22.602 22.3954L25.2201 26.8557ZM39.9089 26.7507L42.463 22.2534L47.6351 22.2164L50.2532 26.6767L47.6992 31.174L42.527 31.2109L39.9089 26.7507Z" fill="#7616EC"/>
<path d="M35.4882 50.02L32.9288 47.4969L30.4057 50.0564L32.9652 52.5794L35.4882 50.02Z" fill="#7616EC"/>
<path d="M35.1535 3.5406L32.5941 1.01752L30.071 3.57694L32.6304 6.10002L35.1535 3.5406Z" fill="#7616EC"/>
<path d="M34.9011 18.2165L37.4551 13.7192L52.5217 13.6115L60.1476 26.606L64.9433 26.5717L54.8892 9.44137L35.0282 9.58338L32.4742 14.0806L34.9011 18.2165Z" fill="url(#paint0_linear_504_8586)"/>
<path d="M25.2201 26.8556L22.6661 31.3528L17.4939 31.3898L14.8758 26.9295L10.0801 26.9638L15.1251 35.5599L25.093 35.4886L27.647 30.9914L25.2201 26.8556Z" fill="url(#paint1_linear_504_8586)"/>
<path d="M10.2399 44.1637L30.1021 44.0217L32.6561 39.5245L30.228 35.3887L27.6739 39.8859L12.6074 39.9936L4.98147 27.0004L12.4208 13.8995L27.4873 13.7917L30.7125 19.286L35.1132 26.785L35.1517 26.8506L35.7203 27.8202L40.1595 35.3823L50.1274 35.311L55.0502 26.6424L50.0039 18.0451L40.0361 18.1163L37.482 22.6136L34.9011 18.2165L32.4729 14.0806L29.8548 9.62037L9.99263 9.76239L0.184508 27.0347L10.2399 44.1637ZM42.4642 22.2521L47.6364 22.2152L50.2545 26.6754L47.7005 31.1727L42.5283 31.2097L39.9102 26.7494L42.4642 22.2521Z" fill="url(#paint2_linear_504_8586)"/>
<path d="M10.2399 44.1637L30.1021 44.0217L32.6561 39.5245L30.228 35.3887L27.6739 39.8859L12.6074 39.9936L4.98147 27.0004L12.4208 13.8995L27.4873 13.7917L30.7125 19.286L35.1132 26.785L35.1517 26.8506L35.7203 27.8202L40.1595 35.3823L50.1274 35.311L55.0502 26.6424L50.0039 18.0451L40.0361 18.1163L37.482 22.6136L34.9011 18.2165L32.4729 14.0806L29.8548 9.62037L9.99263 9.76239L0.184508 27.0347L10.2399 44.1637ZM42.4642 22.2521L47.6364 22.2152L50.2545 26.6754L47.7005 31.1727L42.5283 31.2097L39.9102 26.7494L42.4642 22.2521Z" fill="#7616EC"/>
<path d="M39.9089 26.7508L42.4642 22.2522L47.6351 22.2153L50.2532 26.6768L55.0502 26.6425L50.0039 18.0452L40.036 18.1164L37.4819 22.6137L39.9089 26.7508Z" fill="url(#paint3_linear_504_8586)"/>
<path d="M30.2279 35.3887L27.6738 39.8859L12.6073 39.9937L4.98139 27.0005L0.1857 27.0347L10.2398 44.1638L30.102 44.0218L32.6561 39.5245L30.2279 35.3887Z" fill="url(#paint4_linear_504_8586)"/>
<path opacity="0.2" d="M52.5943 13.4841L37.382 13.5929L34.7553 18.2187L37.4851 22.8683L40.1118 18.2425L49.9326 18.1723L54.9044 26.6421L50.0542 35.1822L40.2334 35.2524L27.5612 13.6618L12.3476 13.7706L4.83563 27.0001L12.536 40.1209L27.7496 40.0121L30.3763 35.3863L27.6465 30.7366L25.0198 35.3612L15.199 35.4314L10.2271 26.9616L15.0774 18.4215L24.8982 18.3513L37.5704 39.9419L52.7827 39.8331L60.2946 26.6036L52.5943 13.4841ZM52.7083 39.7068L37.6417 39.8146L29.4088 25.7874L24.9708 18.2252L15.003 18.2965L10.0801 26.9652L15.1264 35.5625L25.0943 35.4912L27.6483 30.994L30.2292 35.3911L27.6752 39.8884L12.6086 39.9961L4.98273 27.0029L12.4221 13.9019L27.4873 13.7942L30.7125 19.2884L35.1132 26.7874L35.1517 26.8531L35.7203 27.8214L40.1595 35.3835L50.1274 35.3122L55.0502 26.6436L50.0039 18.0463L40.0361 18.1175L37.482 22.6148L34.9011 18.2176L37.4552 13.7204L52.5217 13.6127L60.1476 26.6059L52.7083 39.7068ZM50.4003 26.6756L47.7078 22.0878L42.3885 22.1258L39.7618 26.7517L42.4544 31.3382L47.7736 31.3001L50.4003 26.6756ZM42.5283 31.2109L39.9102 26.7506L42.4642 22.2533L47.6364 22.2164L50.2545 26.6766L47.7005 31.1739L42.5283 31.2109ZM55.1352 43.8427L64.9433 26.5703L54.8892 9.44003L35.027 9.58205L32.4729 14.0793L29.8548 9.61903L9.99259 9.76105L0.184479 27.0334L10.2386 44.1637L30.1008 44.0217L32.6549 39.5244L35.273 43.9847L55.1352 43.8427ZM35.3469 43.8574L32.6543 39.2696L30.0276 43.8954L10.3124 44.0364L0.332792 27.0336L10.0683 9.88855L29.7834 9.74758L32.476 14.3354L35.1027 9.70955L54.8178 9.56858L64.7975 26.5726L55.062 43.7164L35.3469 43.8574ZM14.7287 26.9307L17.4213 31.5172L22.7405 31.4791L25.3672 26.8546L22.6746 22.2668L17.3554 22.3048L14.7287 26.9307ZM22.602 22.3941L25.2201 26.8544L22.6661 31.3516L17.4939 31.3886L14.8758 26.9283L17.4298 22.4311L22.602 22.3941Z" fill="url(#paint5_linear_504_8586)"/>
<defs>
<linearGradient id="paint0_linear_504_8586" x1="58.1743" y1="13.7152" x2="24.8348" y2="19.1584" gradientUnits="userSpaceOnUse">
<stop offset="0.27216" stop-color="#7616EC"/>
<stop offset="0.796657" stop-color="#4B0F95"/>
</linearGradient>
<linearGradient id="paint1_linear_504_8586" x1="19.0514" y1="35.4879" x2="27.8966" y2="28.3438" gradientUnits="userSpaceOnUse">
<stop stop-color="#7616EC"/>
<stop offset="1" stop-color="#430C86"/>
</linearGradient>
<linearGradient id="paint2_linear_504_8586" x1="27.4947" y1="9.63692" x2="27.7407" y2="44.0388" gradientUnits="userSpaceOnUse">
<stop stop-color="#638EFB"/>
<stop offset="1" stop-color="#92FDDC"/>
</linearGradient>
<linearGradient id="paint3_linear_504_8586" x1="37.7936" y1="26.0965" x2="46.9071" y2="22.6215" gradientUnits="userSpaceOnUse">
<stop stop-color="#490F8F"/>
<stop offset="1" stop-color="#7616EC"/>
</linearGradient>
<linearGradient id="paint4_linear_504_8586" x1="28.4423" y1="29.429" x2="12.1287" y2="36.9109" gradientUnits="userSpaceOnUse">
<stop stop-color="#490F8F"/>
<stop offset="1" stop-color="#7616EC"/>
</linearGradient>
<linearGradient id="paint5_linear_504_8586" x1="36.8417" y1="28.9446" x2="53.0369" y2="37.0557" gradientUnits="userSpaceOnUse">
<stop stop-color="#5D17CF" stop-opacity="0"/>
<stop offset="0.1983" stop-color="#8955DC" stop-opacity="0.2214"/>
<stop offset="0.4475" stop-color="#BB9DEB" stop-opacity="0.4996"/>
<stop offset="0.6552" stop-color="#E0D2F6" stop-opacity="0.7315"/>
<stop offset="0.8104" stop-color="#F6F3FC" stop-opacity="0.9048"/>
<stop offset="0.8957" stop-color="white"/>
</linearGradient>
</defs>
</svg>
