<svg width="188" height="29" viewBox="0 0 188 29" fill="none" xmlns="http://www.w3.org/2000/svg">
<path d="M15.1416 2.05444V6.12947C12.3754 4.88605 10.1712 4.26351 8.53075 4.26351C7.59614 4.26351 6.85106 4.42037 6.2988 4.73408C5.74653 5.0478 5.4704 5.46282 5.4704 5.98077C5.4704 6.37945 5.66973 6.7569 6.06677 7.11473C6.46545 7.47256 7.43438 7.93496 8.97681 8.50193C10.5192 9.06891 11.7529 9.59666 12.6777 10.0836C13.6025 10.5705 14.4014 11.2584 15.073 12.1423C15.7445 13.0279 16.0811 14.1472 16.0811 15.5C16.0811 17.4297 15.3475 18.9672 13.8802 20.111C12.413 21.2547 10.48 21.8266 8.08142 21.8266C5.49491 21.8266 2.98682 21.1551 0.558801 19.812V15.3203C1.95091 16.2549 3.18616 16.9379 4.25965 17.3644C5.33315 17.7908 6.47362 18.0065 7.67782 18.0065C9.71697 18.0065 10.7382 17.366 10.7382 16.0817C10.7382 15.6438 10.5339 15.2321 10.1255 14.8432C9.71698 14.456 8.73499 13.9838 7.17785 13.4266C5.62072 12.8694 4.38709 12.3531 3.477 11.8744C2.5669 11.3973 1.78099 10.7143 1.11925 9.82868C0.457506 8.94309 0.127441 7.8075 0.127441 6.4252C0.127441 4.63441 0.848003 3.1884 2.29076 2.08876C3.73352 0.989127 5.6632 0.438477 8.08142 0.438477C10.3117 0.443378 12.6646 0.97931 15.1416 2.05444Z" fill="white"/>
<path d="M28.6789 21.5623V19.5477C27.375 21.0705 25.8587 21.8319 24.1268 21.8319C22.5941 21.8319 21.3507 21.3597 20.3949 20.4137C19.439 19.4676 18.9619 18.1605 18.9619 16.489V7.47461H23.3948V16.1786C23.3948 17.9677 24.1366 18.8615 25.6185 18.8615C26.4551 18.8615 27.1675 18.5363 27.7606 17.886C28.3521 17.2357 28.6479 16.7553 28.6479 16.4482V7.47461H33.1101V21.564H28.6789V21.5623Z" fill="white"/>
<path d="M41.3349 7.47283V11.5021H41.3953C42.6796 8.61659 44.1763 7.17383 45.887 7.17383C46.7023 7.17383 47.6827 7.60192 48.8264 8.45809L47.6026 12.3828C46.5079 11.6867 45.6321 11.3387 44.9753 11.3387C43.9508 11.3387 43.0864 11.9743 42.3855 13.2439C41.6845 14.5134 41.3332 15.2536 41.3332 15.4627V21.5606H36.9004V7.47119H41.3349V7.47283Z" fill="white"/>
<path d="M55.2236 21.83L48.7075 7.47266H53.4606L56.4458 15.2338L59.4849 7.47266H64.1841L57.6974 21.83H55.2236Z" fill="white"/>
<path d="M79.811 17.1882V19.9789C78.1199 21.2125 76.0252 21.8302 73.5269 21.8302C71.0498 21.8302 69.0695 21.1652 67.5875 19.8351C66.1056 18.5051 65.3638 16.7454 65.3638 14.5543C65.3638 12.4024 66.0598 10.6345 67.4536 9.25055C68.8457 7.86661 70.6218 7.17383 72.7818 7.17383C74.95 7.17383 76.7294 7.90256 78.1166 9.36003C79.5038 10.8175 80.1541 12.77 80.0642 15.2177H69.9453C70.0352 16.4954 70.4878 17.4806 71.3031 18.1685C72.1184 18.858 73.2132 19.2028 74.5873 19.2028C76.249 19.2028 77.9908 18.5313 79.811 17.1882ZM70.0352 12.8909H76.1542C75.9157 10.842 74.8961 9.81588 73.0939 9.81588C71.2737 9.81588 70.2541 10.8404 70.0352 12.8909Z" fill="white"/>
<path d="M96.6632 7.47266L87.2223 28.3216H82.4987L86.6358 19.2582L81.1245 7.47266H85.8531L88.8334 14.7306L92.0147 7.47266H96.6632Z" fill="white"/>
<path d="M107.496 0.710938H110.481V21.5615H107.496V0.710938Z" fill="#ACACAC"/>
<path d="M117.452 7.83047V9.57713C118.666 8.23404 120.043 7.5625 121.586 7.5625C122.442 7.5625 123.237 7.7847 123.973 8.22586C124.71 8.66866 125.268 9.27648 125.652 10.0461C126.035 10.8173 126.228 12.0378 126.228 13.7093V21.5604H123.512V13.7404C123.512 12.3368 123.298 11.3352 122.87 10.7323C122.442 10.131 121.726 9.82876 120.721 9.82876C119.437 9.82876 118.349 10.4709 117.453 11.7535V21.5587H114.677V7.8272H117.452V7.83047Z" fill="#ACACAC"/>
<path d="M130.332 7.83037V7.01013C130.332 4.80106 130.803 3.15406 131.742 2.07077C132.682 0.985838 133.809 0.443359 135.123 0.443359C135.69 0.443359 136.361 0.533228 137.137 0.711326V3.3681C136.7 3.20961 136.281 3.12955 135.884 3.12955C134.819 3.12955 134.08 3.41385 133.669 3.98082C133.255 4.54779 133.049 5.55757 133.049 7.01013V7.83037H135.497V10.278H133.049V21.5603H130.334V10.278H128.363V7.83037H130.332Z" fill="#ACACAC"/>
<path d="M139.062 2.05469C139.51 2.05469 139.892 2.20829 140.211 2.5171C140.529 2.82591 140.688 3.20334 140.688 3.65104C140.688 4.08893 140.529 4.46638 140.211 4.785C139.892 5.10361 139.51 5.26209 139.062 5.26209C138.644 5.26209 138.276 5.10034 137.958 4.77682C137.639 4.4533 137.48 4.07749 137.48 3.6494C137.48 3.23112 137.639 2.86023 137.958 2.53671C138.276 2.21646 138.644 2.05469 139.062 2.05469ZM137.719 7.83064H140.435V21.5622H137.719V7.83064Z" fill="#ACACAC"/>
<path d="M147.076 7.83047V9.57713C148.29 8.23404 149.668 7.5625 151.21 7.5625C152.067 7.5625 152.862 7.7847 153.599 8.22586C154.336 8.66866 154.895 9.27648 155.279 10.0461C155.661 10.8173 155.854 12.0378 155.854 13.7093V21.5604H153.138V13.7404C153.138 12.3368 152.924 11.3352 152.496 10.7323C152.068 10.131 151.352 9.82876 150.348 9.82876C149.063 9.82876 147.975 10.4709 147.08 11.7535V21.5587H144.304V7.8272H147.076V7.83047Z" fill="#ACACAC"/>
<path d="M161.046 2.05469C161.494 2.05469 161.877 2.20829 162.195 2.5171C162.514 2.82591 162.672 3.20334 162.672 3.65104C162.672 4.08893 162.512 4.46638 162.195 4.785C161.877 5.10361 161.494 5.26209 161.046 5.26209C160.628 5.26209 160.261 5.10034 159.942 4.77682C159.623 4.4533 159.465 4.07749 159.465 3.6494C159.465 3.23112 159.623 2.86023 159.942 2.53671C160.261 2.21646 160.628 2.05469 161.046 2.05469ZM159.703 7.83064H162.419V21.5622H159.703V7.83064Z" fill="#ACACAC"/>
<path d="M164.419 10.0097L169.523 4.99512V7.83H173.866V10.2776H169.523V16.998C169.523 18.5682 170.175 19.3525 171.479 19.3525C172.455 19.3525 173.484 19.0289 174.569 18.3819V20.9194C173.525 21.506 172.384 21.8001 171.151 21.8001C169.907 21.8001 168.871 21.4374 168.046 20.7103C167.788 20.4913 167.574 20.2446 167.404 19.9717C167.234 19.6989 167.094 19.3394 166.979 18.8966C166.865 18.4538 166.808 17.6107 166.808 16.3673V10.2776H164.419V10.0097Z" fill="#ACACAC"/>
<path d="M184.952 7.83008H188L178.271 28.5614H175.239L179.9 18.6124L174.598 7.83008H177.693L181.4 15.5863L184.952 7.83008Z" fill="#ACACAC"/>
</svg>
