<svg width="66" height="53" viewBox="0 0 66 53" fill="none" xmlns="http://www.w3.org/2000/svg">
<path d="M54.8895 9.46554L35.0273 9.60756L32.4732 14.1048L29.8551 9.64454L9.99288 9.78656L0.184761 27.0589L10.2389 44.1892L30.1011 44.0472L32.6551 39.5499L35.2733 44.0102L55.1354 43.8682L64.9436 26.5958L54.8895 9.46554ZM37.642 39.8388L29.409 25.8116L24.9711 18.2495L15.0032 18.3208L10.0804 26.9894L15.1267 35.5867L25.0945 35.5155L27.6486 31.0182L30.2295 35.4154L27.6754 39.9126L12.6089 40.0203L4.983 27.0271L12.4223 13.9262L27.4876 13.8184L30.7127 19.3127L35.1135 26.8117L35.152 26.8773L35.7205 27.8456L40.1598 35.4078L50.1277 35.3365L55.0505 26.6679L50.0042 18.0705L40.0363 18.1418L37.4823 22.639L34.9014 18.2419L37.4554 13.7446L52.522 13.6369L60.1479 26.6301L52.7085 39.7311L37.642 39.8388ZM25.2204 26.8799L22.6664 31.3771L17.4942 31.4141L14.876 26.9538L17.4301 22.4566L22.6023 22.4196L25.2204 26.8799ZM39.9092 26.7749L42.4632 22.2776L47.6354 22.2406L50.2535 26.7009L47.6995 31.1981L42.5273 31.2351L39.9092 26.7749Z" fill="#7616EC"/>
<path d="M35.4886 50.0446L32.9292 47.5215L30.4061 50.0809L32.9655 52.604L35.4886 50.0446Z" fill="#7616EC"/>
<path d="M35.1539 3.56507L32.5945 1.04199L30.0714 3.60141L32.6308 6.12449L35.1539 3.56507Z" fill="#7616EC"/>
<path d="M34.9013 18.2416L37.4554 13.7443L52.5219 13.6366L60.1479 26.6311L64.9436 26.5968L54.8895 9.46652L35.0285 9.60853L32.4745 14.1058L34.9013 18.2416Z" fill="url(#paint0_linear_501_2967)"/>
<path d="M25.2205 26.8804L22.6664 31.3777L17.4942 31.4146L14.8761 26.9544L10.0804 26.9887L15.1255 35.5848L25.0933 35.5135L27.6474 31.0162L25.2205 26.8804Z" fill="url(#paint1_linear_501_2967)"/>
<path d="M10.2401 44.1885L30.1023 44.0464L32.6564 39.5492L30.2282 35.4134L27.6741 39.9106L12.6076 40.0184L4.98171 27.0251L12.421 13.9242L27.4876 13.8165L30.7127 19.3107L35.1135 26.8097L35.152 26.8753L35.7205 27.8449L40.1598 35.407L50.1276 35.3358L55.0505 26.6671L50.0042 18.0698L40.0363 18.1411L37.4822 22.6383L34.9013 18.2412L32.4732 14.1054L29.8551 9.64509L9.99287 9.78711L0.184753 27.0594L10.2401 44.1885ZM42.4645 22.2769L47.6367 22.2399L50.2548 26.7002L47.7007 31.1974L42.5285 31.2344L39.9104 26.7741L42.4645 22.2769Z" fill="url(#paint2_linear_501_2967)"/>
<path d="M10.2401 44.1885L30.1023 44.0464L32.6564 39.5492L30.2282 35.4134L27.6741 39.9106L12.6076 40.0184L4.98171 27.0251L12.421 13.9242L27.4876 13.8165L30.7127 19.3107L35.1135 26.8097L35.152 26.8753L35.7205 27.8449L40.1598 35.407L50.1276 35.3358L55.0505 26.6671L50.0042 18.0698L40.0363 18.1411L37.4822 22.6383L34.9013 18.2412L32.4732 14.1054L29.8551 9.64509L9.99287 9.78711L0.184753 27.0594L10.2401 44.1885ZM42.4645 22.2769L47.6367 22.2399L50.2548 26.7002L47.7007 31.1974L42.5285 31.2344L39.9104 26.7741L42.4645 22.2769Z" fill="#7616EC"/>
<path d="M39.9092 26.7754L42.4645 22.2769L47.6354 22.2399L50.2535 26.7015L55.0505 26.6672L50.0042 18.0698L40.0363 18.1411L37.4823 22.6383L39.9092 26.7754Z" fill="url(#paint3_linear_501_2967)"/>
<path d="M30.2282 35.4136L27.6741 39.9108L12.6076 40.0186L4.98172 27.0254L0.186028 27.0596L10.2401 44.1887L30.1023 44.0467L32.6564 39.5494L30.2282 35.4136Z" fill="url(#paint4_linear_501_2967)"/>
<path opacity="0.2" d="M52.5946 13.5086L37.3823 13.6174L34.7556 18.2432L37.4853 22.8929L40.112 18.267L49.9329 18.1968L54.9047 26.6667L50.0545 35.2067L40.2337 35.2769L27.5614 13.6864L12.3479 13.7951L4.83591 27.0247L12.5363 40.1454L27.7498 40.0366L30.3765 35.4108L27.6468 30.7612L25.0201 35.3857L15.1993 35.4559L10.2274 26.9861L15.0776 18.446L24.8984 18.3758L37.5707 39.9664L52.783 39.8576L60.2949 26.6281L52.5946 13.5086ZM52.7085 39.7314L37.642 39.8391L29.4091 25.8119L24.9711 18.2498L15.0032 18.3211L10.0804 26.9897L15.1267 35.587L25.0945 35.5158L27.6486 31.0185L30.2295 35.4157L27.6754 39.9129L12.6089 40.0206L4.98301 27.0274L12.4223 13.9265L27.4876 13.8187L30.7128 19.313L35.1135 26.812L35.152 26.8776L35.7206 27.8459L40.1598 35.408L50.1277 35.3368L55.0505 26.6681L50.0042 18.0708L40.0363 18.1421L37.4823 22.6393L34.9014 18.2422L37.4554 13.7449L52.522 13.6372L60.1479 26.6304L52.7085 39.7314ZM50.4006 26.7001L47.708 22.1123L42.3888 22.1504L39.7621 26.7762L42.4547 31.3627L47.7739 31.3247L50.4006 26.7001ZM42.5286 31.2354L39.9104 26.7751L42.4645 22.2779L47.6367 22.2409L50.2548 26.7012L47.7008 31.1984L42.5286 31.2354ZM55.1354 43.8672L64.9436 26.5949L54.8895 9.46456L35.0273 9.60658L32.4732 14.1038L29.8551 9.64357L9.99288 9.78559L0.184761 27.0579L10.2389 44.1882L30.1011 44.0462L32.6551 39.549L35.2733 44.0092L55.1354 43.8672ZM35.3471 43.8819L32.6546 39.2941L30.0279 43.9199L10.3127 44.0609L0.333075 27.0581L10.0686 9.91309L29.7837 9.77212L32.4763 14.3599L35.103 9.73409L54.8181 9.59312L64.7978 26.5972L55.0623 43.7409L35.3471 43.8819ZM14.729 26.9552L17.4215 31.5417L22.7408 31.5037L25.3675 26.8791L22.6749 22.2913L17.3557 22.3294L14.729 26.9552ZM22.6023 22.4186L25.2204 26.8789L22.6664 31.3761L17.4942 31.4131L14.876 26.9529L17.4301 22.4556L22.6023 22.4186Z" fill="url(#paint5_linear_501_2967)"/>
<defs>
<linearGradient id="paint0_linear_501_2967" x1="58.1746" y1="13.7404" x2="24.8351" y2="19.1836" gradientUnits="userSpaceOnUse">
<stop offset="0.27216" stop-color="#7616EC"/>
<stop offset="0.796657" stop-color="#4B0F95"/>
</linearGradient>
<linearGradient id="paint1_linear_501_2967" x1="19.0517" y1="35.5128" x2="27.8969" y2="28.3686" gradientUnits="userSpaceOnUse">
<stop stop-color="#7616EC"/>
<stop offset="1" stop-color="#430C86"/>
</linearGradient>
<linearGradient id="paint2_linear_501_2967" x1="27.495" y1="9.66164" x2="27.7409" y2="44.0636" gradientUnits="userSpaceOnUse">
<stop stop-color="#638EFB"/>
<stop offset="1" stop-color="#92FDDC"/>
</linearGradient>
<linearGradient id="paint3_linear_501_2967" x1="37.7939" y1="26.1212" x2="46.9074" y2="22.6462" gradientUnits="userSpaceOnUse">
<stop stop-color="#490F8F"/>
<stop offset="1" stop-color="#7616EC"/>
</linearGradient>
<linearGradient id="paint4_linear_501_2967" x1="28.4426" y1="29.4539" x2="12.129" y2="36.9358" gradientUnits="userSpaceOnUse">
<stop stop-color="#490F8F"/>
<stop offset="1" stop-color="#7616EC"/>
</linearGradient>
<linearGradient id="paint5_linear_501_2967" x1="36.842" y1="28.9692" x2="53.0372" y2="37.0802" gradientUnits="userSpaceOnUse">
<stop stop-color="#5D17CF" stop-opacity="0"/>
<stop offset="0.1983" stop-color="#8955DC" stop-opacity="0.2214"/>
<stop offset="0.4475" stop-color="#BB9DEB" stop-opacity="0.4996"/>
<stop offset="0.6552" stop-color="#E0D2F6" stop-opacity="0.7315"/>
<stop offset="0.8104" stop-color="#F6F3FC" stop-opacity="0.9048"/>
<stop offset="0.8957" stop-color="white"/>
</linearGradient>
</defs>
</svg>
