<svg width="24" height="25" viewBox="0 0 24 25" fill="none" xmlns="http://www.w3.org/2000/svg">
<path d="M13.3057 1.34366C13.0648 0.828088 12.5558 0.5 11.9967 0.5C11.4377 0.5 10.9332 0.828088 10.6878 1.34366L7.76537 7.54452L1.2388 8.53816C0.693401 8.62253 0.238904 9.01623 0.0707399 9.55524C-0.0974239 10.0942 0.038925 10.6895 0.429792 11.0879L5.16565 15.9201L4.04759 22.7491C3.95669 23.3115 4.18394 23.8833 4.63389 24.2161C5.08384 24.5489 5.67923 24.5911 6.17009 24.3239L12.0013 21.1133L17.8325 24.3239C18.3233 24.5911 18.9187 24.5536 19.3687 24.2161C19.8186 23.8786 20.0459 23.3115 19.955 22.7491L18.8324 15.9201L23.5682 11.0879C23.9591 10.6895 24.1 10.0942 23.9273 9.55524C23.7546 9.01623 23.3046 8.62253 22.7592 8.53816L16.2281 7.54452L13.3057 1.34366Z" fill="url(#paint0_linear_190_1187)"/>
<defs>
<linearGradient id="paint0_linear_190_1187" x1="22.1392" y1="24.1076" x2="19.6081" y2="10.3271" gradientUnits="userSpaceOnUse">
<stop stop-color="#490F8F"/>
<stop offset="1" stop-color="#7616EC"/>
</linearGradient>
</defs>
</svg>
